<svg width="143" height="105" viewBox="0 0 143 105" fill="none" xmlns="http://www.w3.org/2000/svg">
<path d="M20.3267 81.8724C17.6484 73.4207 15.7101 64.751 14.5338 55.9617L14.7701 57.7847C13.6733 49.4415 12.9522 40.8309 14.0429 32.4452L13.8006 34.2681C14.2362 30.7104 15.1409 27.2264 16.491 23.9075L15.8002 25.4996C16.6992 23.3683 17.8595 21.3577 19.2542 19.5141L18.2241 20.8935C19.4831 19.2613 20.9429 17.7953 22.5688 16.5305L21.1993 17.5939C22.7341 16.427 24.4047 15.4516 26.1743 14.6893L24.5564 15.3759C26.6207 14.5134 28.788 13.9232 31.0038 13.6198L29.1859 13.8628C31.9132 13.5043 34.6754 13.5043 37.4027 13.8628L35.5848 13.6198C38.9195 14.0812 42.1792 14.9801 45.2802 16.2935L43.6744 15.6311C46.7278 16.9246 49.6033 18.6054 52.2305 20.6322L50.8429 19.5627C53.6624 21.8055 56.1943 24.3894 58.381 27.2557L57.3206 25.8824C60.6462 30.2911 63.3916 35.111 65.4889 40.2232L64.8042 38.6008C68.1309 46.5429 70.3063 54.9104 72.2696 63.2779C72.6393 64.8578 72.9483 66.4499 73.1664 68.0541L72.9241 66.2312C73.2955 68.7304 73.3403 71.2675 73.0574 73.7783L73.2998 71.9553C73.143 73.2052 72.8294 74.4302 72.3666 75.6013L73.0513 73.9789C72.7248 74.766 72.3014 75.509 71.7909 76.1908L72.8514 74.8174C72.4148 75.3748 71.9122 75.8768 71.3546 76.3123L72.7302 75.2489C72.1664 75.6664 71.5564 76.0171 70.9123 76.294L72.5362 75.6074C71.647 75.9713 70.7139 76.2165 69.7609 76.3366L71.5788 76.0996C70.4418 76.2393 69.2921 76.2393 68.1552 76.0996L69.973 76.3427C68.7358 76.1689 67.526 75.836 66.3736 75.3522L67.9915 76.0388C66.6095 75.4373 65.3053 74.6701 64.1073 73.754L65.4829 74.8174C63.9599 73.6305 62.5936 72.2543 61.4169 70.7218L62.4773 72.1012C61.1236 70.3209 59.994 68.38 59.1142 66.3223L59.799 67.9448C58.8708 65.728 58.2352 63.3992 57.9084 61.0174L58.1508 62.8404C57.8569 60.5793 57.8569 58.2896 58.1508 56.0285L57.9084 57.8515C58.2353 55.6231 58.8462 53.4461 59.7262 51.3738L58.9809 52.9841C60.0663 50.4734 61.4651 48.1109 63.1439 45.9535L62.0834 47.3268C64.521 44.2327 67.3388 41.4601 70.4699 39.0747L69.1247 40.1381C73.6707 36.6843 78.6372 33.8255 83.9041 31.6309L82.2558 32.3236C86.6123 30.4028 91.1996 29.0587 95.902 28.3252L94.0842 28.5683C97.3749 28.1227 100.709 28.1084 104.004 28.5257L102.186 28.2827C104.979 28.6473 107.713 29.3766 110.318 30.452L108.694 29.7654C110.78 30.6449 112.748 31.7819 114.553 33.15L113.184 32.0866C114.93 33.4558 116.501 35.0354 117.862 36.7899L116.802 35.4105C118.45 37.5994 119.82 39.9856 120.88 42.5141L120.195 40.8856C122.667 46.7677 123.764 53.1057 124.606 59.3889L124.364 57.5659C125.758 68.0359 126.976 78.5363 128.272 89.0246L129.406 98.2003C129.484 99.9869 130.188 101.689 131.393 103.007C132.023 103.639 132.77 104.14 133.593 104.482C134.416 104.824 135.299 105 136.189 105C137.08 105 137.962 104.824 138.785 104.482C139.608 104.14 140.356 103.639 140.985 103.007C142.113 101.792 143.185 99.9686 142.973 98.2003C141.89 89.4742 140.81 80.7482 139.731 72.0222C138.731 63.9464 138.004 55.7733 136.392 47.7886C135.755 44.4464 134.813 41.1696 133.581 37.9992C132.811 35.9874 131.91 34.0286 130.884 32.1352C129.793 30.2565 128.55 28.4701 127.17 26.7939C122.492 20.9239 115.347 16.9923 108.052 15.5218C100.639 14.065 92.9848 14.4447 85.7522 16.6277C79.7546 18.409 73.9959 20.9168 68.6036 24.0959C63.1499 27.3286 57.866 31.3271 53.7151 36.1762C49.4189 41.2016 45.8377 47.2113 44.8196 53.8531C44.4577 55.9254 44.2853 58.0265 44.3046 60.1302C44.375 62.4794 44.6755 64.8159 45.2014 67.1062C46.1094 71.0855 47.776 74.8512 50.1097 78.196C52.6971 81.842 55.8905 85.1781 59.902 87.2623C61.8375 88.315 63.9281 89.0514 66.0949 89.4439C68.6756 89.8855 71.314 89.8649 73.8875 89.3831C80.3895 88.2407 85.1826 82.5833 86.2552 76.215C86.7577 73.4087 86.882 70.5473 86.6248 67.7078C86.3458 64.8574 85.8741 62.0293 85.2129 59.243C83.7579 52.6764 81.9371 46.1967 79.7593 39.8343C77.3354 33.071 74.3602 26.3807 70.1609 20.5228C65.8586 14.513 60.6291 9.2203 54.109 5.63509C47.9163 2.18321 40.9935 0.258604 33.9124 0.0202973C28.4076 -0.17521 22.9445 1.04433 18.0423 3.56298C16.2484 4.51382 14.5534 5.64153 12.9825 6.92941C7.13499 11.493 3.42652 18.5236 1.66924 25.6454C-0.0880423 32.7672 -0.245589 40.3569 0.233119 47.7218C0.804743 56.5069 2.0855 65.2311 4.06279 73.8087C4.97173 77.7464 6.04023 81.6455 7.2683 85.5062C7.76939 87.201 8.87908 88.6493 10.3829 89.5715C11.5478 90.2541 12.8891 90.5731 14.2355 90.4877C15.582 90.4023 16.8725 89.9165 17.9424 89.0921C19.0122 88.2678 19.8127 87.1424 20.2417 85.8597C20.6707 84.577 20.7088 83.1951 20.351 81.8906L20.3267 81.8724Z" fill="white"/>
</svg>
